<svg width="165" height="178" viewBox="0 0 165 178" fill="none" xmlns="http://www.w3.org/2000/svg">
<g opacity="0.8">
<path d="M65.7216 79.2658V51.8204H84.0778C94.1119 51.8204 99.9797 56.9046 99.9797 65.5821C99.9797 74.5043 93.7509 79.2658 81.7884 79.2658H65.7216ZM65.7216 121.118H85.2947C97.5047 121.118 103.96 115.778 103.96 105.799C103.96 95.9533 97.2572 90.8024 84.5109 90.8024H65.7216V121.118Z" fill="#800FF0"/>
<path d="M41.25 0C30.3098 0 19.8177 4.68838 12.0818 13.0337C4.34597 21.3791 0 32.6979 0 44.5V133.5C0 145.302 4.34597 156.621 12.0818 164.966C19.8177 173.312 30.3098 178 41.25 178H123.75C134.69 178 145.182 173.312 152.918 164.966C160.654 156.621 165 145.302 165 133.5V44.5C165 32.6979 160.654 21.3791 152.918 13.0337C145.182 4.68838 134.69 0 123.75 0L41.25 0ZM52.1812 133.5V39.4381H87.2334C103.599 39.4381 113.458 48.4383 113.458 62.9119C113.458 72.7464 106.755 81.5462 98.1647 83.1149V84.2274C109.952 85.529 117.8 94.5847 117.8 106.844C117.8 123.398 106.621 133.5 88.0172 133.5H52.1812Z" fill="#800FF0"/>
</g>
</svg>
