<svg width="202" height="198" viewBox="0 0 202 198" fill="none" xmlns="http://www.w3.org/2000/svg">
<g filter="url(#filter0_d_450_19)">
<rect x="35" y="31" width="132" height="128" rx="30" fill="#0F0F0F"/>
</g>
<g opacity="0.8">
<path d="M90.2211 86.3047V71.6569H102.014C108.46 71.6569 112.229 74.3704 112.229 79.0016C112.229 83.7635 108.228 86.3047 100.543 86.3047H90.2211ZM90.2211 108.642H102.795C110.639 108.642 114.787 105.792 114.787 100.466C114.787 95.211 110.48 92.4619 102.292 92.4619H90.2211V108.642Z" fill="#4CAEFF"/>
<path d="M74.5 44C67.4718 44 60.7314 46.5022 55.7617 50.9562C50.792 55.4102 48 61.4511 48 67.75V115.25C48 121.549 50.792 127.59 55.7617 132.044C60.7314 136.498 67.4718 139 74.5 139H127.5C134.528 139 141.269 136.498 146.238 132.044C151.208 127.59 154 121.549 154 115.25V67.75C154 61.4511 151.208 55.4102 146.238 50.9562C141.269 46.5022 134.528 44 127.5 44H74.5ZM81.5225 115.25V65.0484H104.041C114.555 65.0484 120.888 69.8519 120.888 77.5766C120.888 82.8253 116.582 87.5219 111.063 88.3591V88.9528C118.636 89.6475 123.677 94.4806 123.677 101.024C123.677 109.859 116.496 115.25 104.544 115.25H81.5225Z" fill="#4CAEFF"/>
</g>
<defs>
<filter id="filter0_d_450_19" x="0" y="0" width="202" height="198" filterUnits="userSpaceOnUse" color-interpolation-filters="sRGB">
<feFlood flood-opacity="0" result="BackgroundImageFix"/>
<feColorMatrix in="SourceAlpha" type="matrix" values="0 0 0 0 0 0 0 0 0 0 0 0 0 0 0 0 0 0 127 0" result="hardAlpha"/>
<feOffset dy="4"/>
<feGaussianBlur stdDeviation="17.5"/>
<feComposite in2="hardAlpha" operator="out"/>
<feColorMatrix type="matrix" values="0 0 0 0 0.298039 0 0 0 0 0.682353 0 0 0 0 1 0 0 0 1 0"/>
<feBlend mode="normal" in2="BackgroundImageFix" result="effect1_dropShadow_450_19"/>
<feBlend mode="normal" in="SourceGraphic" in2="effect1_dropShadow_450_19" result="shape"/>
</filter>
</defs>
</svg>
