<svg width="141" height="138" viewBox="0 0 141 138" fill="none" xmlns="http://www.w3.org/2000/svg">
<g filter="url(#filter0_d_5_9)">
<ellipse cx="70.5" cy="65" rx="35.5" ry="34" fill="#4CAEFF"/>
</g>
<path d="M67.3125 76.1094C64.9375 77.0885 62.3698 77.5781 59.6094 77.5781C55.7135 77.5781 52.6771 76.5104 50.5 74.375C48.3229 72.2396 47.2344 69.2552 47.2344 65.4219C47.2344 61.5677 48.2969 58.5833 50.4219 56.4688C52.5469 54.3542 55.5469 53.2969 59.4219 53.2969C61.776 53.2969 64.2708 53.6354 66.9062 54.3125V59.0781H64.5781V58.7812C64.5781 57.3958 64.3542 56.5156 63.9062 56.1406C62.8646 55.2656 61.3906 54.8281 59.4844 54.8281C57.2135 54.8281 55.4583 55.7448 54.2188 57.5781C52.9792 59.401 52.3594 61.9896 52.3594 65.3438C52.3594 68.7708 53.0521 71.3438 54.4375 73.0625C55.8333 74.7812 57.9167 75.6406 60.6875 75.6406C62.6042 75.6406 64.8125 75.0677 67.3125 73.9219V76.1094ZM69.4219 77V75.5469L69.7188 75.5312C70.7708 75.4583 71.401 75.2812 71.6094 75C71.8177 74.7083 71.9219 73.8646 71.9219 72.4688V58.3906C71.9219 56.9948 71.8177 56.1562 71.6094 55.875C71.4115 55.5938 70.7812 55.4115 69.7188 55.3281L69.4219 55.3125V53.875H77L80.3594 53.8281L81.5938 53.8125C85.2292 53.8125 88.026 54.776 89.9844 56.7031C91.9323 58.6302 92.9062 61.3802 92.9062 64.9531C92.9062 68.6198 91.9115 71.5469 89.9219 73.7344C87.9427 75.9115 85.2865 77 81.9531 77H69.4219ZM76.7188 55.4062V72.4688C76.7188 73.7396 76.9115 74.5417 77.2969 74.875C77.6927 75.1979 78.6458 75.3594 80.1562 75.3594C82.7083 75.3594 84.6198 74.4948 85.8906 72.7656C87.1615 71.026 87.7969 68.4219 87.7969 64.9531C87.7969 61.4948 87.0885 59.0417 85.6719 57.5938C84.2656 56.1354 81.875 55.4062 78.5 55.4062H76.7188Z" fill="black"/>
<defs>
<filter id="filter0_d_5_9" x="0" y="0" width="141" height="138" filterUnits="userSpaceOnUse" color-interpolation-filters="sRGB">
<feFlood flood-opacity="0" result="BackgroundImageFix"/>
<feColorMatrix in="SourceAlpha" type="matrix" values="0 0 0 0 0 0 0 0 0 0 0 0 0 0 0 0 0 0 127 0" result="hardAlpha"/>
<feOffset dy="4"/>
<feGaussianBlur stdDeviation="17.5"/>
<feComposite in2="hardAlpha" operator="out"/>
<feColorMatrix type="matrix" values="0 0 0 0 0.298039 0 0 0 0 0.682353 0 0 0 0 1 0 0 0 1 0"/>
<feBlend mode="normal" in2="BackgroundImageFix" result="effect1_dropShadow_5_9"/>
<feBlend mode="normal" in="SourceGraphic" in2="effect1_dropShadow_5_9" result="shape"/>
</filter>
</defs>
</svg>
