<svg width="202" height="198" viewBox="0 0 202 198" fill="none" xmlns="http://www.w3.org/2000/svg">
<g filter="url(#filter0_d_450_17)">
<rect x="35" y="31" width="132" height="128" rx="30" fill="#0F0F0F"/>
</g>
<path d="M56.8253 140.004L47 50H155L145.162 139.989L100.934 150L56.8253 140.004Z" fill="#4CAEFF" fill-opacity="0.5"/>
<path d="M101 142.35L136.74 134.261L145.148 57.3608H101V142.35Z" fill="#4CAEFF"/>
<path d="M101 89.968H118.892L120.126 78.6644H101V67.6251H101.048H134.903L134.579 70.5858L131.259 101.007H101V89.968Z" fill="white"/>
<path d="M101.083 118.636L101.022 118.65L85.9645 115.329L85.0021 106.525H77.6834H71.4277L73.3219 123.857L101.017 130.136L101.083 130.122V118.636Z" fill="#EBEBEB"/>
<path d="M117.741 100.539L116.114 115.321L101.035 118.643V130.129L128.752 123.857L128.958 121.993L131.307 100.539H117.741Z" fill="white"/>
<path d="M101.048 67.6251V74.4823V78.6358V78.6644H68.4312H68.3874L68.1162 76.1823L67.4994 70.5858L67.1757 67.6251H101.048Z" fill="#EBEBEB"/>
<path d="M101 89.968V96.8252V100.979V101.007H86.1747H86.131L85.8597 98.5252L85.2473 92.9287L84.9236 89.968H101Z" fill="#EBEBEB"/>
<defs>
<filter id="filter0_d_450_17" x="0" y="0" width="202" height="198" filterUnits="userSpaceOnUse" color-interpolation-filters="sRGB">
<feFlood flood-opacity="0" result="BackgroundImageFix"/>
<feColorMatrix in="SourceAlpha" type="matrix" values="0 0 0 0 0 0 0 0 0 0 0 0 0 0 0 0 0 0 127 0" result="hardAlpha"/>
<feOffset dy="4"/>
<feGaussianBlur stdDeviation="17.5"/>
<feComposite in2="hardAlpha" operator="out"/>
<feColorMatrix type="matrix" values="0 0 0 0 0.298039 0 0 0 0 0.682353 0 0 0 0 1 0 0 0 1 0"/>
<feBlend mode="normal" in2="BackgroundImageFix" result="effect1_dropShadow_450_17"/>
<feBlend mode="normal" in="SourceGraphic" in2="effect1_dropShadow_450_17" result="shape"/>
</filter>
</defs>
</svg>
