<svg width="146" height="169" viewBox="0 0 146 169" fill="none" xmlns="http://www.w3.org/2000/svg">
<path d="M13.2824 152.106L0 0H146L132.7 152.082L72.9113 169L13.2824 152.106Z" fill="#800FF0" fill-opacity="0.5"/>
<path d="M73 156.072L121.316 142.401L132.682 12.4398H73V156.072Z" fill="#800FF0"/>
<path d="M73 67.5459H97.1875L98.8552 48.4429H73V29.7865H73.065H118.832L118.394 34.7901L113.906 86.2023H73V67.5459Z" fill="white"/>
<path d="M73.1123 115.995L73.0295 116.019L52.6742 110.406L51.3731 95.5275H41.4793H33.0226L35.5833 124.819L73.0236 135.43L73.1123 135.405V115.995Z" fill="#EBEBEB"/>
<path d="M95.6321 85.4114L93.4321 110.393L73.0472 116.006V135.417L110.517 124.819L110.795 121.668L113.971 85.4114H95.6321Z" fill="white"/>
<path d="M73.065 29.7865V41.3751V48.3946V48.4429H28.9717H28.9125L28.5459 44.2481L27.712 34.7901L27.2744 29.7865H73.065Z" fill="#EBEBEB"/>
<path d="M73.0001 67.546V79.1346V86.1541V86.2024H52.9582H52.8991L52.5324 82.0076L51.7045 72.5496L51.2668 67.546H73.0001Z" fill="#EBEBEB"/>
</svg>
