<svg xmlns="http://www.w3.org/2000/svg" xmlns:xlink="http://www.w3.org/1999/xlink" width="500" zoomAndPan="magnify" viewBox="0 0 375 374.999991" height="500" preserveAspectRatio="xMidYMid meet" version="1.0"><defs><clipPath id="9e8ae6389a"><path d="M 75 71.015625 L 300 71.015625 L 300 303.800781 L 75 303.800781 Z M 75 71.015625 " clip-rule="nonzero"/></clipPath><clipPath id="bb711c43cb"><path d="M 299.796875 265.292969 C 299.796875 286.457031 282.636719 303.570312 261.523438 303.570312 L 113.476562 303.570312 C 92.316406 303.570312 75.203125 286.410156 75.203125 265.292969 L 75.203125 109.707031 C 75.203125 88.542969 92.363281 71.429688 113.476562 71.429688 L 261.523438 71.429688 C 282.683594 71.429688 299.796875 88.589844 299.796875 109.707031 Z M 299.796875 265.292969 " clip-rule="nonzero"/></clipPath><clipPath id="2254d9e82e"><path d="M 72.488281 68.714844 L 302.511719 68.714844 L 302.511719 306.5625 L 72.488281 306.5625 Z M 72.488281 68.714844 " clip-rule="nonzero"/></clipPath><clipPath id="22c1fc8c59"><path d="M 261.523438 306.285156 L 113.476562 306.285156 C 90.890625 306.285156 72.488281 287.882812 72.488281 265.292969 L 72.488281 109.707031 C 72.488281 87.117188 90.890625 68.714844 113.476562 68.714844 L 261.523438 68.714844 C 284.109375 68.714844 302.511719 87.117188 302.511719 109.707031 L 302.511719 265.25 C 302.511719 287.882812 284.109375 306.285156 261.523438 306.285156 Z M 113.476562 74.144531 C 93.878906 74.144531 77.914062 90.105469 77.914062 109.707031 L 77.914062 265.25 C 77.914062 284.847656 93.878906 300.8125 113.476562 300.8125 L 261.523438 300.8125 C 281.121094 300.8125 297.085938 284.847656 297.085938 265.25 L 297.085938 109.707031 C 297.085938 90.105469 281.121094 74.144531 261.523438 74.144531 Z M 113.476562 74.144531 " clip-rule="nonzero"/></clipPath><clipPath id="3326a10343"><path d="M 99.792969 94.289062 L 275.292969 94.289062 L 275.292969 290.039062 L 99.792969 290.039062 Z M 99.792969 94.289062 " clip-rule="nonzero"/></clipPath></defs><g clip-path="url(#9e8ae6389a)"><g clip-path="url(#bb711c43cb)"><path fill="#000000" d="M 72.488281 68.714844 L 302.511719 68.714844 L 302.511719 306.101562 L 72.488281 306.101562 Z M 72.488281 68.714844 " fill-opacity="1" fill-rule="nonzero"/></g></g><g clip-path="url(#2254d9e82e)"><g clip-path="url(#22c1fc8c59)"><path fill="#000000" d="M 72.488281 68.714844 L 302.511719 68.714844 L 302.511719 306.101562 L 72.488281 306.101562 Z M 72.488281 68.714844 " fill-opacity="1" fill-rule="nonzero"/></g></g><g clip-path="url(#3326a10343)"><path fill="#4caecf" d="M 275.265625 94.289062 L 99.820312 94.289062 L 115.300781 269.4375 L 187.542969 290.039062 L 259.785156 269.4375 Z M 275.265625 94.289062 " fill-opacity="1" fill-rule="nonzero"/></g><path fill="#039be5" d="M 187.542969 109.746094 L 187.542969 274.070312 L 245.335938 257.585938 L 258.238281 109.746094 Z M 187.542969 109.746094 " fill-opacity="1" fill-rule="nonzero"/><path fill="#ffffff" d="M 234.5 135.5 L 187.542969 135.5 L 187.542969 156.105469 L 212.828125 156.105469 L 211.28125 176.710938 L 187.542969 176.710938 L 187.542969 197.316406 L 210.246094 197.316406 L 208.699219 220.5 L 187.542969 227.710938 L 187.542969 249.34375 L 228.308594 235.953125 L 231.921875 176.710938 Z M 234.5 135.5 " fill-opacity="1" fill-rule="nonzero"/><path fill="#eeeeee" d="M 187.542969 135.5 L 187.542969 156.105469 L 141.617188 156.105469 L 140.070312 135.5 Z M 163.804688 176.710938 L 164.839844 197.316406 L 187.542969 197.316406 L 187.542969 176.710938 Z M 165.871094 207.621094 L 145.230469 207.621094 L 146.777344 235.953125 L 187.542969 249.34375 L 187.542969 227.710938 L 166.386719 220.5 Z M 165.871094 207.621094 " fill-opacity="1" fill-rule="nonzero"/></svg>