<svg width="171" height="184" viewBox="0 0 171 184" fill="none" xmlns="http://www.w3.org/2000/svg">
<path d="M156.75 0H93.6429L79.3929 33.3734H0V166.867H171V0H156.75ZM156.75 33.3734H101.107L108.571 16.6867H156.75V33.3734Z" fill="#800FF0"/>
<path fill-rule="evenodd" clip-rule="evenodd" d="M170.787 100.566C170.787 117.068 166.608 133.199 158.779 146.92C150.95 160.64 139.822 171.334 126.803 177.649C113.784 183.964 99.4577 185.616 85.6366 182.397C71.8154 179.178 59.1199 171.231 49.1554 159.563C39.1909 147.894 32.405 133.028 29.6558 116.844C26.9066 100.659 28.3176 83.8833 33.7103 68.6378C39.1031 53.3924 48.2354 40.3618 59.9524 31.194C71.6694 22.0262 85.4448 17.1329 99.5367 17.1329C118.433 17.1329 136.556 25.9232 149.918 41.57C163.28 57.2169 170.787 78.4385 170.787 100.566Z" fill="white"/>
<path fill-rule="evenodd" clip-rule="evenodd" d="M120.917 142.052C121.098 139.222 120.759 136.38 119.925 133.716C119.09 131.052 117.779 128.627 116.079 126.605C131.951 124.539 148.61 117.483 148.61 85.4367C148.723 77.1471 146.1 69.1261 141.288 63.0447C143.461 55.8464 143.206 47.9484 140.575 40.9627C140.575 40.9627 134.604 38.7219 121.005 49.5205C109.328 45.7699 97.0035 45.7699 85.3261 49.5205C71.7207 38.7219 65.7357 40.9627 65.7357 40.9627C63.1203 47.9546 62.8776 55.8507 65.0571 63.0447C60.2519 69.1163 57.6254 77.1197 57.7218 85.397C57.7218 117.364 74.3536 124.523 90.1779 126.629C87.5901 129.591 85.9859 133.534 85.6518 137.753C83.9044 138.905 81.9792 139.64 79.9877 139.915C77.9962 140.189 75.9779 139.998 74.0498 139.353C72.1217 138.708 70.3221 137.621 68.7552 136.156C67.1883 134.691 65.8852 132.876 64.9214 130.817C63.7798 128.506 62.2029 126.53 60.3109 125.04C58.419 123.55 56.2616 122.585 54.0032 122.219C54.0032 122.219 47.0479 122.116 53.5146 127.296C57.3107 130.126 60.1172 134.452 61.4268 139.494C61.4268 139.494 65.6068 155.727 85.4279 150.682C85.4279 157.642 85.5229 162.895 85.5229 164.873C85.5106 165.352 85.4374 165.826 85.3057 166.28C97.0192 169.956 109.353 169.956 121.066 166.28C120.93 165.838 120.85 165.374 120.829 164.905C120.829 162.172 120.917 153.177 120.917 142.052Z" fill="#333333"/>
</svg>
