<svg width="202" height="198" viewBox="0 0 202 198" fill="none" xmlns="http://www.w3.org/2000/svg">
<g filter="url(#filter0_d_450_16)">
<rect x="35" y="31" width="132" height="128" rx="30" fill="#0F0F0F"/>
</g>
<path d="M55.193 143.404L45 48H157L146.793 143.389L100.932 154L55.193 143.404Z" fill="#4CAEFF" fill-opacity="0.5"/>
<path d="M101 145.891L138.061 137.316L146.78 55.8025H101V145.891Z" fill="#4CAEFF"/>
<path d="M103.328 90.8643H84.7752L83.4959 78.8825H103.328V67.1809H103.279H68.1725L68.5082 70.3231L71.9512 102.566H103.328V90.8643Z" fill="#EBEBEB"/>
<path d="M101 121.571L100.936 121.587L85.3226 118.07L84.3246 108.738H76.7355H70.2487L72.2129 127.106L100.936 133.761L101 133.746V121.571Z" fill="#EBEBEB"/>
<path d="M100.95 91.1836V102.885H118.215L116.591 118.062L100.95 121.583V133.758L129.696 127.106L129.905 125.13L133.198 94.3257L133.543 91.1836H129.764H100.95Z" fill="white"/>
<path d="M100.95 67.5004V74.7689V79.1755V79.202H134.772H134.818L135.099 76.5747L135.738 70.6425L136.074 67.5004H100.95Z" fill="white"/>
<defs>
<filter id="filter0_d_450_16" x="0" y="0" width="202" height="198" filterUnits="userSpaceOnUse" color-interpolation-filters="sRGB">
<feFlood flood-opacity="0" result="BackgroundImageFix"/>
<feColorMatrix in="SourceAlpha" type="matrix" values="0 0 0 0 0 0 0 0 0 0 0 0 0 0 0 0 0 0 127 0" result="hardAlpha"/>
<feOffset dy="4"/>
<feGaussianBlur stdDeviation="17.5"/>
<feComposite in2="hardAlpha" operator="out"/>
<feColorMatrix type="matrix" values="0 0 0 0 0.298039 0 0 0 0 0.682353 0 0 0 0 1 0 0 0 1 0"/>
<feBlend mode="normal" in2="BackgroundImageFix" result="effect1_dropShadow_450_16"/>
<feBlend mode="normal" in="SourceGraphic" in2="effect1_dropShadow_450_16" result="shape"/>
</filter>
</defs>
</svg>
