<svg xmlns="http://www.w3.org/2000/svg" xmlns:xlink="http://www.w3.org/1999/xlink" width="500" zoomAndPan="magnify" viewBox="0 0 375 374.999991" height="500" preserveAspectRatio="xMidYMid meet" version="1.0"><defs><clipPath id="455924124a"><path d="M 75 71.015625 L 300 71.015625 L 300 303.800781 L 75 303.800781 Z M 75 71.015625 " clip-rule="nonzero"/></clipPath><clipPath id="538dea7bbd"><path d="M 299.796875 265.292969 C 299.796875 286.457031 282.636719 303.570312 261.523438 303.570312 L 113.476562 303.570312 C 92.316406 303.570312 75.203125 286.410156 75.203125 265.292969 L 75.203125 109.707031 C 75.203125 88.542969 92.363281 71.429688 113.476562 71.429688 L 261.523438 71.429688 C 282.683594 71.429688 299.796875 88.589844 299.796875 109.707031 Z M 299.796875 265.292969 " clip-rule="nonzero"/></clipPath><clipPath id="61caaaa49b"><path d="M 72.488281 68.714844 L 302.511719 68.714844 L 302.511719 306.5625 L 72.488281 306.5625 Z M 72.488281 68.714844 " clip-rule="nonzero"/></clipPath><clipPath id="a6a9273ff0"><path d="M 261.523438 306.285156 L 113.476562 306.285156 C 90.890625 306.285156 72.488281 287.882812 72.488281 265.292969 L 72.488281 109.707031 C 72.488281 87.117188 90.890625 68.714844 113.476562 68.714844 L 261.523438 68.714844 C 284.109375 68.714844 302.511719 87.117188 302.511719 109.707031 L 302.511719 265.25 C 302.511719 287.882812 284.109375 306.285156 261.523438 306.285156 Z M 113.476562 74.144531 C 93.878906 74.144531 77.914062 90.105469 77.914062 109.707031 L 77.914062 265.25 C 77.914062 284.847656 93.878906 300.808594 113.476562 300.808594 L 261.523438 300.808594 C 281.121094 300.808594 297.085938 284.847656 297.085938 265.25 L 297.085938 109.707031 C 297.085938 90.105469 281.121094 74.144531 261.523438 74.144531 Z M 113.476562 74.144531 " clip-rule="nonzero"/></clipPath><clipPath id="77a16fbef2"><path d="M 99.472656 90 L 275.722656 90 L 275.722656 290.792969 L 99.472656 290.792969 Z M 99.472656 90 " clip-rule="nonzero"/></clipPath></defs><g clip-path="url(#455924124a)"><g clip-path="url(#538dea7bbd)"><path fill="#000000" d="M 72.488281 68.714844 L 302.511719 68.714844 L 302.511719 306.101562 L 72.488281 306.101562 Z M 72.488281 68.714844 " fill-opacity="1" fill-rule="nonzero"/></g></g><g clip-path="url(#61caaaa49b)"><g clip-path="url(#a6a9273ff0)"><path fill="#000000" d="M 72.488281 68.714844 L 302.511719 68.714844 L 302.511719 306.101562 L 72.488281 306.101562 Z M 72.488281 68.714844 " fill-opacity="1" fill-rule="nonzero"/></g></g><g clip-path="url(#77a16fbef2)"><path fill="#4caecf" d="M 276.421875 90.121094 L 260.3125 270.695312 L 187.894531 290.78125 L 115.679688 270.726562 L 99.585938 90.121094 L 276.425781 90.121094 Z M 276.421875 90.121094 " fill-opacity="1" fill-rule="nonzero"/></g><path fill="#4caecf" d="M 188.007812 275.429688 L 246.527344 259.199219 L 260.292969 104.890625 L 188.007812 104.890625 Z M 188.007812 275.429688 " fill-opacity="1" fill-rule="nonzero"/><path fill="#fffbe8" d="M 156.6875 149.1875 L 188.007812 149.1875 L 188.007812 127.035156 L 132.492188 127.035156 L 133.023438 132.980469 L 138.464844 194.019531 L 188.007812 194.019531 L 188.007812 171.875 L 158.710938 171.875 Z M 156.6875 149.1875 " fill-opacity="1" fill-rule="nonzero"/><path fill="#fffbe8" d="M 161.679688 205.097656 L 139.453125 205.097656 L 142.554688 239.878906 L 187.902344 252.472656 L 188.007812 252.445312 L 188.007812 229.398438 L 187.910156 229.425781 L 163.253906 222.761719 Z M 161.679688 205.097656 " fill-opacity="1" fill-rule="nonzero"/><path fill="#fffbe8" d="M 187.929688 194.019531 L 215.195312 194.019531 L 212.621094 222.746094 L 187.929688 229.417969 L 187.929688 252.460938 L 233.3125 239.878906 L 233.648438 236.132812 L 238.851562 177.820312 L 239.394531 171.875 L 187.929688 171.875 Z M 187.929688 194.019531 " fill-opacity="1" fill-rule="nonzero"/><path fill="#fffbe8" d="M 187.929688 149.132812 L 187.929688 149.1875 L 241.402344 149.1875 L 241.847656 144.207031 L 242.859375 132.980469 L 243.386719 127.035156 L 187.929688 127.035156 Z M 187.929688 149.132812 " fill-opacity="1" fill-rule="nonzero"/></svg>