<svg width="146" height="170" viewBox="0 0 146 170" fill="none" xmlns="http://www.w3.org/2000/svg">
<path d="M13.2872 152.88L0 0H146L132.695 152.856L72.9113 169.86L13.2872 152.88Z" fill="#800FF0" fill-opacity="0.5"/>
<path d="M72.9998 156.866L121.312 143.126L132.677 12.5032H72.9998V156.866Z" fill="#800FF0"/>
<path d="M72.9999 69.1997H48.8144L47.1468 49.9995H72.9999V31.2482H72.9349H27.1716L27.6092 36.2833L32.0974 87.9511H72.9999V69.1997Z" fill="#EBEBEB"/>
<path d="M72.9999 117.895L72.9171 117.919L52.5634 112.283L51.2625 97.3295H41.3695H32.9135L35.4739 126.764L72.9171 137.429L72.9999 137.404V117.895Z" fill="#EBEBEB"/>
<path d="M72.9349 69.1997V87.951H95.4411L93.3241 112.271L72.9349 117.913V137.423L110.408 126.764L110.68 123.597L114.973 74.2348L115.422 69.1997H110.496H72.9349Z" fill="white"/>
<path d="M72.9349 31.2482V42.8957V49.957V49.9995H117.025H117.084L117.45 45.7894L118.284 36.2833L118.722 31.2482H72.9349Z" fill="white"/>
</svg>
