<svg width="164" height="170" viewBox="0 0 164 170" fill="none" xmlns="http://www.w3.org/2000/svg">
<path d="M0 0H164V170H0V0Z" fill="#800FF0"/>
<path d="M110.167 132.813C111.564 135.755 113.735 138.228 116.43 139.947C119.124 141.665 122.232 142.56 125.396 142.527C131.78 142.527 135.862 139.218 135.862 134.634C135.862 129.17 131.669 127.215 124.64 124.027L120.786 122.315C109.657 117.403 102.277 111.253 102.277 98.248C102.277 86.2691 111.063 77.1437 124.845 77.1437C129.306 76.8098 133.764 77.8448 137.662 80.1197C141.559 82.3947 144.724 85.8088 146.762 89.9362L134.714 97.9202C133.93 95.8736 132.563 94.1227 130.796 92.8996C129.03 91.6765 126.946 91.039 124.822 91.0716C123.895 90.9754 122.959 91.0804 122.073 91.3799C121.188 91.6794 120.372 92.1669 119.678 92.8112C118.985 93.4555 118.428 94.2425 118.044 95.1221C117.66 96.0017 117.457 96.9547 117.447 97.9202C117.447 102.711 120.312 104.653 126.924 107.634L130.778 109.347C143.875 115.169 151.278 121.101 151.278 134.44C151.278 148.823 140.378 156.704 125.741 156.704C120.038 157.08 114.352 155.738 109.368 152.839C104.385 149.94 100.317 145.608 97.6562 140.366L110.167 132.813ZM55.7249 134.197C58.1439 138.647 60.3462 142.412 65.641 142.412C70.7016 142.412 73.8996 140.359 73.8996 132.376V78.0544H89.3097V132.588C89.3097 149.127 79.9383 156.655 66.297 156.655C61.4752 156.928 56.6864 155.683 52.5602 153.082C48.434 150.481 45.1636 146.647 43.1789 142.084L55.7249 134.197Z" fill="black"/>
</svg>
