<svg width="202" height="198" viewBox="0 0 202 198" fill="none" xmlns="http://www.w3.org/2000/svg">
<g filter="url(#filter0_d_450_18)">
<rect x="35" y="31" width="132" height="128" rx="30" fill="#0F0F0F"/>
</g>
<path d="M48 64C48 55.7157 54.7157 49 63 49H136C144.284 49 151 55.7157 151 64V127C151 135.284 144.284 142 136 142H63C54.7157 142 48 135.284 48 127V64Z" fill="#4CAEFF"/>
<path d="M113.377 123.662C115.492 122.549 118.092 123.448 120.023 124.856C120.372 125.111 120.739 125.345 121.123 125.559C122.816 126.499 124.768 126.989 126.755 126.971C130.764 126.971 133.328 125.16 133.328 122.653C133.328 119.663 130.694 118.594 126.28 116.85L123.859 115.914C116.87 113.227 112.235 109.862 112.235 102.747C112.235 96.1942 117.753 91.2021 126.409 91.2021C129.211 91.0194 132.01 91.5857 134.458 92.8302C135.622 93.4221 136.683 94.1549 137.612 95.0037C139.293 96.5392 138.583 99.1185 136.611 100.257L135.851 100.695C134.12 101.695 131.859 100.854 130.146 99.8215V99.8215C129.037 99.1524 127.728 98.8036 126.394 98.8215C125.812 98.7689 125.224 98.8263 124.668 98.9902C124.112 99.154 123.6 99.4207 123.164 99.7731C122.728 100.126 122.379 100.556 122.137 101.037C121.896 101.519 121.768 102.04 121.763 102.568C121.763 105.189 123.562 106.252 127.715 107.882L130.135 108.819C138.36 112.004 143.01 115.249 143.01 122.546C143.01 130.415 136.164 134.726 126.972 134.726C123.39 134.932 119.818 134.198 116.689 132.612C114.986 131.749 113.454 130.655 112.141 129.374C110.359 127.635 111.172 124.821 113.377 123.662V123.662ZM79.0957 124.55C81.2858 123.351 83.772 124.367 85.7806 125.85C86.67 126.507 87.7589 126.907 89.2257 126.907C92.404 126.907 94.4125 125.785 94.4125 121.417V96.5395C94.4125 93.8669 96.5791 91.7003 99.2517 91.7003V91.7003C101.924 91.7003 104.091 93.8669 104.091 96.5395V121.533C104.091 130.581 98.2051 134.7 89.6377 134.7C86.6094 134.849 83.6018 134.168 81.0103 132.745C79.8127 132.087 78.7298 131.286 77.7884 130.367C75.9764 128.599 76.8752 125.766 79.0957 124.55V124.55Z" fill="black"/>
<defs>
<filter id="filter0_d_450_18" x="0" y="0" width="202" height="198" filterUnits="userSpaceOnUse" color-interpolation-filters="sRGB">
<feFlood flood-opacity="0" result="BackgroundImageFix"/>
<feColorMatrix in="SourceAlpha" type="matrix" values="0 0 0 0 0 0 0 0 0 0 0 0 0 0 0 0 0 0 127 0" result="hardAlpha"/>
<feOffset dy="4"/>
<feGaussianBlur stdDeviation="17.5"/>
<feComposite in2="hardAlpha" operator="out"/>
<feColorMatrix type="matrix" values="0 0 0 0 0.298039 0 0 0 0 0.682353 0 0 0 0 1 0 0 0 1 0"/>
<feBlend mode="normal" in2="BackgroundImageFix" result="effect1_dropShadow_450_18"/>
<feBlend mode="normal" in="SourceGraphic" in2="effect1_dropShadow_450_18" result="shape"/>
</filter>
</defs>
</svg>
