<svg xmlns="http://www.w3.org/2000/svg" xmlns:xlink="http://www.w3.org/1999/xlink" width="500" zoomAndPan="magnify" viewBox="0 0 375 374.999991" height="500" preserveAspectRatio="xMidYMid meet" version="1.0"><defs><clipPath id="0fcbf96b33"><path d="M 75 71.015625 L 300 71.015625 L 300 303.800781 L 75 303.800781 Z M 75 71.015625 " clip-rule="nonzero"/></clipPath><clipPath id="3db979f2a8"><path d="M 299.796875 265.292969 C 299.796875 286.457031 282.636719 303.570312 261.523438 303.570312 L 113.476562 303.570312 C 92.316406 303.570312 75.203125 286.410156 75.203125 265.292969 L 75.203125 109.707031 C 75.203125 88.542969 92.363281 71.429688 113.476562 71.429688 L 261.523438 71.429688 C 282.683594 71.429688 299.796875 88.589844 299.796875 109.707031 Z M 299.796875 265.292969 " clip-rule="nonzero"/></clipPath><clipPath id="31ba148b79"><path d="M 72.488281 68.714844 L 302.511719 68.714844 L 302.511719 306.5625 L 72.488281 306.5625 Z M 72.488281 68.714844 " clip-rule="nonzero"/></clipPath><clipPath id="b780d30e73"><path d="M 261.523438 306.285156 L 113.476562 306.285156 C 90.890625 306.285156 72.488281 287.882812 72.488281 265.292969 L 72.488281 109.707031 C 72.488281 87.117188 90.890625 68.714844 113.476562 68.714844 L 261.523438 68.714844 C 284.109375 68.714844 302.511719 87.117188 302.511719 109.707031 L 302.511719 265.25 C 302.511719 287.882812 284.109375 306.285156 261.523438 306.285156 Z M 113.476562 74.144531 C 93.878906 74.144531 77.914062 90.105469 77.914062 109.707031 L 77.914062 265.25 C 77.914062 284.847656 93.878906 300.808594 113.476562 300.808594 L 261.523438 300.808594 C 281.121094 300.808594 297.085938 284.847656 297.085938 265.25 L 297.085938 109.707031 C 297.085938 90.105469 281.121094 74.144531 261.523438 74.144531 Z M 113.476562 74.144531 " clip-rule="nonzero"/></clipPath><clipPath id="adad19ec4c"><path d="M 92.269531 92.269531 L 287 92.269531 L 287 287 L 92.269531 287 Z M 92.269531 92.269531 " clip-rule="nonzero"/></clipPath></defs><g clip-path="url(#0fcbf96b33)"><g clip-path="url(#3db979f2a8)"><path fill="#000000" d="M 72.488281 68.714844 L 302.511719 68.714844 L 302.511719 306.101562 L 72.488281 306.101562 Z M 72.488281 68.714844 " fill-opacity="1" fill-rule="nonzero"/></g></g><g clip-path="url(#31ba148b79)"><g clip-path="url(#b780d30e73)"><path fill="#000000" d="M 72.488281 68.714844 L 302.511719 68.714844 L 302.511719 306.101562 L 72.488281 306.101562 Z M 72.488281 68.714844 " fill-opacity="1" fill-rule="nonzero"/></g></g><g clip-path="url(#adad19ec4c)"><path fill="#4caecf" d="M 101.09375 92.710938 C 98.5625 92.710938 96.152344 93.796875 94.480469 95.695312 C 92.804688 97.59375 92.023438 100.117188 92.339844 102.628906 L 109.984375 243.804688 C 110.351562 246.734375 112.15625 249.285156 114.796875 250.601562 L 185.382812 285.898438 C 187.867188 287.140625 190.792969 287.140625 193.273438 285.898438 L 263.863281 250.601562 C 266.503906 249.285156 268.308594 246.734375 268.671875 243.804688 L 286.320312 102.628906 C 286.632812 100.117188 285.855469 97.59375 284.179688 95.695312 C 282.503906 93.796875 280.09375 92.710938 277.566406 92.710938 Z M 101.09375 92.710938 " fill-opacity="1" fill-rule="nonzero"/></g><path fill="#000000" d="M 167.269531 227.507812 L 167.269531 128.003906 L 184.917969 128.003906 L 184.917969 242.710938 C 184.917969 245.855469 183.242188 248.765625 180.523438 250.34375 C 177.800781 251.921875 174.449219 251.933594 171.714844 250.371094 L 140.835938 232.726562 L 149.589844 217.402344 Z M 167.269531 227.507812 " fill-opacity="1" fill-rule="evenodd"/><path fill="#000000" d="M 193.742188 128.003906 C 193.742188 123.132812 197.691406 119.183594 202.566406 119.183594 L 246.683594 119.183594 L 246.683594 136.828125 L 211.386719 136.828125 L 211.386719 174.359375 L 240.355469 167.921875 C 243.105469 167.3125 245.984375 168.050781 248.097656 169.910156 C 250.214844 171.769531 251.3125 174.527344 251.058594 177.332031 L 246.644531 225.863281 C 246.367188 228.90625 244.539062 231.589844 241.804688 232.957031 L 206.511719 250.601562 L 198.617188 234.820312 L 229.515625 219.371094 L 232.390625 187.769531 L 204.476562 193.972656 C 201.867188 194.554688 199.132812 193.914062 197.042969 192.242188 C 194.957031 190.566406 193.742188 188.035156 193.742188 185.359375 Z M 193.742188 128.003906 " fill-opacity="1" fill-rule="evenodd"/></svg>