<svg width="141" height="138" viewBox="0 0 141 138" fill="none" xmlns="http://www.w3.org/2000/svg">
<g filter="url(#filter0_d_5_9)">
<ellipse cx="70.5" cy="65" rx="35.5" ry="34" fill="#4CAEFF"/>
</g>
<path d="M57.7969 67.5312V72.4688C57.7969 73.8854 57.9115 74.7292 58.1406 75C58.3698 75.2708 59.125 75.4479 60.4062 75.5312L60.7031 75.5469V77H50.6719V75.5469L50.9688 75.5312C52.0208 75.4583 52.651 75.2812 52.8594 75C53.0677 74.7083 53.1719 73.8646 53.1719 72.4688V58.3906C53.1719 56.9948 53.0677 56.1562 52.8594 55.875C52.6615 55.5938 52.0312 55.4115 50.9688 55.3281L50.6719 55.3125V53.875H57.7969L60.7812 53.7969L62.0938 53.7656C66.6458 53.7656 68.9219 55.8073 68.9219 59.8906C68.9219 62.4323 68.1146 64.3438 66.5 65.625C64.8854 66.8958 62.4635 67.5312 59.2344 67.5312H57.7969ZM57.7969 65.9844H58.7188C60.4896 65.9844 61.8177 65.5052 62.7031 64.5469C63.5885 63.5885 64.0312 62.1562 64.0312 60.25C64.0312 57.0208 62.5156 55.4062 59.4844 55.4062H57.7969V65.9844ZM70.3281 77V75.5469L70.625 75.5312C71.6771 75.4583 72.3073 75.2812 72.5156 75C72.724 74.7083 72.8281 73.8646 72.8281 72.4688V58.3906C72.8281 56.9948 72.724 56.1562 72.5156 55.875C72.3177 55.5938 71.6875 55.4115 70.625 55.3281L70.3281 55.3125V53.875H77.9062L81.2656 53.8281L82.5 53.8125C86.1354 53.8125 88.9323 54.776 90.8906 56.7031C92.8385 58.6302 93.8125 61.3802 93.8125 64.9531C93.8125 68.6198 92.8177 71.5469 90.8281 73.7344C88.849 75.9115 86.1927 77 82.8594 77H70.3281ZM77.625 55.4062V72.4688C77.625 73.7396 77.8177 74.5417 78.2031 74.875C78.599 75.1979 79.5521 75.3594 81.0625 75.3594C83.6146 75.3594 85.526 74.4948 86.7969 72.7656C88.0677 71.026 88.7031 68.4219 88.7031 64.9531C88.7031 61.4948 87.9948 59.0417 86.5781 57.5938C85.1719 56.1354 82.7812 55.4062 79.4062 55.4062H77.625Z" fill="black"/>
<defs>
<filter id="filter0_d_5_9" x="0" y="0" width="141" height="138" filterUnits="userSpaceOnUse" color-interpolation-filters="sRGB">
<feFlood flood-opacity="0" result="BackgroundImageFix"/>
<feColorMatrix in="SourceAlpha" type="matrix" values="0 0 0 0 0 0 0 0 0 0 0 0 0 0 0 0 0 0 127 0" result="hardAlpha"/>
<feOffset dy="4"/>
<feGaussianBlur stdDeviation="17.5"/>
<feComposite in2="hardAlpha" operator="out"/>
<feColorMatrix type="matrix" values="0 0 0 0 0.298039 0 0 0 0 0.682353 0 0 0 0 1 0 0 0 1 0"/>
<feBlend mode="normal" in2="BackgroundImageFix" result="effect1_dropShadow_5_9"/>
<feBlend mode="normal" in="SourceGraphic" in2="effect1_dropShadow_5_9" result="shape"/>
</filter>
</defs>
</svg>
