<svg xmlns="http://www.w3.org/2000/svg" xmlns:xlink="http://www.w3.org/1999/xlink" width="500" zoomAndPan="magnify" viewBox="0 0 375 374.999991" height="500" preserveAspectRatio="xMidYMid meet" version="1.0"><defs><g/><clipPath id="26a77bc19c"><path d="M 91.875 91.875 L 283.125 91.875 L 283.125 283.125 L 91.875 283.125 Z M 91.875 91.875 " clip-rule="nonzero"/></clipPath><clipPath id="0bc5a2d95a"><path d="M 283.125 187.5 C 283.125 240.3125 240.3125 283.125 187.5 283.125 C 134.6875 283.125 91.875 240.3125 91.875 187.5 C 91.875 134.6875 134.6875 91.875 187.5 91.875 C 240.3125 91.875 283.125 134.6875 283.125 187.5 Z M 283.125 187.5 " clip-rule="nonzero"/></clipPath></defs><rect x="-37.5" width="450" fill="#ffffff" y="-37.499999" height="449.999989" fill-opacity="1"/><rect x="-37.5" width="450" fill="#ffffff" y="-37.499999" height="449.999989" fill-opacity="1"/><rect x="-37.5" width="450" fill="#ffffff" y="-37.499999" height="449.999989" fill-opacity="1"/><g clip-path="url(#26a77bc19c)"><g clip-path="url(#0bc5a2d95a)"><path fill="#867070" d="M 91.875 91.875 L 283.125 91.875 L 283.125 283.125 L 91.875 283.125 Z M 91.875 91.875 " fill-opacity="1" fill-rule="nonzero"/></g></g><g fill="#ffffff" fill-opacity="1"><g transform="translate(123.523503, 212.417067)"><g><path d="M 32.109375 -57.046875 C 37.378906 -57.046875 41.96875 -56.175781 45.875 -54.4375 C 49.789062 -52.695312 52.804688 -50.195312 54.921875 -46.9375 C 57.046875 -43.675781 58.109375 -39.875 58.109375 -35.53125 C 58.109375 -31.1875 57.046875 -27.382812 54.921875 -24.125 C 52.804688 -20.863281 49.789062 -18.363281 45.875 -16.625 C 41.96875 -14.882812 37.378906 -14.015625 32.109375 -14.015625 L 23.875 -14.015625 L 23.875 0 L 4.640625 0 L 4.640625 -57.046875 Z M 30.890625 -28.84375 C 33.492188 -28.84375 35.445312 -29.425781 36.75 -30.59375 C 38.0625 -31.769531 38.71875 -33.414062 38.71875 -35.53125 C 38.71875 -37.65625 38.0625 -39.300781 36.75 -40.46875 C 35.445312 -41.632812 33.492188 -42.21875 30.890625 -42.21875 L 23.875 -42.21875 L 23.875 -28.84375 Z M 30.890625 -28.84375 "/></g></g></g><g fill="#ffffff" fill-opacity="1"><g transform="translate(184.169953, 212.417067)"><g><path d="M 4.640625 -57.046875 L 32.765625 -57.046875 C 39.117188 -57.046875 44.726562 -55.890625 49.59375 -53.578125 C 54.457031 -51.273438 58.234375 -47.976562 60.921875 -43.6875 C 63.609375 -39.394531 64.953125 -34.34375 64.953125 -28.53125 C 64.953125 -22.707031 63.609375 -17.648438 60.921875 -13.359375 C 58.234375 -9.066406 54.457031 -5.765625 49.59375 -3.453125 C 44.726562 -1.148438 39.117188 0 32.765625 0 L 4.640625 0 Z M 31.953125 -15 C 36.078125 -15 39.375 -16.179688 41.84375 -18.546875 C 44.320312 -20.910156 45.5625 -24.238281 45.5625 -28.53125 C 45.5625 -32.820312 44.320312 -36.144531 41.84375 -38.5 C 39.375 -40.863281 36.078125 -42.046875 31.953125 -42.046875 L 23.875 -42.046875 L 23.875 -15 Z M 31.953125 -15 "/></g></g></g></svg>