<svg width="141" height="138" viewBox="0 0 141 138" fill="none" xmlns="http://www.w3.org/2000/svg">
<g filter="url(#filter0_d_5_8)">
<ellipse cx="70.5" cy="65" rx="35.5" ry="34" fill="#4CAEFF"/>
</g>
<path d="M56.7969 66.875V72.4688C56.7969 73.8542 56.8854 74.6979 57.0625 75C57.25 75.3021 57.776 75.4792 58.6406 75.5312L58.9219 75.5469V77H49.6719V75.5469L49.9688 75.5312C51.0208 75.4583 51.651 75.2812 51.8594 75C52.0677 74.7083 52.1719 73.8646 52.1719 72.4688V58.3906C52.1719 56.9948 52.0677 56.1562 51.8594 55.875C51.6615 55.5938 51.0312 55.4115 49.9688 55.3281L49.6719 55.3125V53.875H56.4062L59.2656 53.7969L60.6875 53.7656C65.4583 53.7656 67.8438 55.7188 67.8438 59.625C67.8438 61.2188 67.474 62.5677 66.7344 63.6719C65.9948 64.776 64.8802 65.6302 63.3906 66.2344L67.9062 72.5156C69.0208 74.0156 69.724 74.8802 70.0156 75.1094C70.3177 75.3385 70.9062 75.4792 71.7812 75.5312L72.0781 75.5469V77H65.1875L58.7812 66.875H56.7969ZM56.7969 65.3281H57.6562C59.2917 65.3281 60.5885 64.8438 61.5469 63.875C62.5052 62.9062 62.9844 61.5833 62.9844 59.9062C62.9844 56.9062 61.5052 55.4062 58.5469 55.4062H56.7969V65.3281ZM90.3438 77H72.7031V75.5469L73 75.5312C74.0521 75.4583 74.6823 75.2812 74.8906 75C75.099 74.7083 75.2031 73.8646 75.2031 72.4688V58.3906C75.2031 56.9948 75.099 56.1562 74.8906 55.875C74.6927 55.5938 74.0625 55.4115 73 55.3281L72.7031 55.3125V53.875H89.6719V58.0156H87.3594L87.3281 57.7188C87.2969 57.1875 87.2812 56.875 87.2812 56.7812C87.2812 56.1979 87.1406 55.8229 86.8594 55.6562C86.5885 55.4896 85.9688 55.4062 85 55.4062H80.0312V64.1875H83.25C84.4896 64.1875 85.1979 64.1562 85.375 64.0938C85.5625 64.0312 85.6667 63.5469 85.6875 62.6406L85.7188 62.3438H87.3594V67.3594H85.7188L85.6875 67.0781C85.6667 66.2552 85.5208 65.7917 85.25 65.6875C84.9792 65.5833 84.3177 65.5312 83.2656 65.5312H79.9375V72.4688C79.9375 74.1979 80.1406 75.1198 80.5469 75.2344C80.849 75.3177 81.6771 75.3594 83.0312 75.3594H84.9688C86.5312 75.3594 87.4062 75.2865 87.5938 75.1406C87.7917 74.9844 87.9323 74.2552 88.0156 72.9531L88.0312 72.6562H90.3438V77Z" fill="black"/>
<defs>
<filter id="filter0_d_5_8" x="0" y="0" width="141" height="138" filterUnits="userSpaceOnUse" color-interpolation-filters="sRGB">
<feFlood flood-opacity="0" result="BackgroundImageFix"/>
<feColorMatrix in="SourceAlpha" type="matrix" values="0 0 0 0 0 0 0 0 0 0 0 0 0 0 0 0 0 0 127 0" result="hardAlpha"/>
<feOffset dy="4"/>
<feGaussianBlur stdDeviation="17.5"/>
<feComposite in2="hardAlpha" operator="out"/>
<feColorMatrix type="matrix" values="0 0 0 0 0.298039 0 0 0 0 0.682353 0 0 0 0 1 0 0 0 1 0"/>
<feBlend mode="normal" in2="BackgroundImageFix" result="effect1_dropShadow_5_8"/>
<feBlend mode="normal" in="SourceGraphic" in2="effect1_dropShadow_5_8" result="shape"/>
</filter>
</defs>
</svg>
