<svg xmlns="http://www.w3.org/2000/svg" xmlns:xlink="http://www.w3.org/1999/xlink" width="500" zoomAndPan="magnify" viewBox="0 0 375 374.999991" height="500" preserveAspectRatio="xMidYMid meet" version="1.0"><defs><clipPath id="b761d742e4"><path d="M 75 71.015625 L 300 71.015625 L 300 303.800781 L 75 303.800781 Z M 75 71.015625 " clip-rule="nonzero"/></clipPath><clipPath id="8e5ba29c29"><path d="M 299.796875 265.292969 C 299.796875 286.457031 282.636719 303.570312 261.523438 303.570312 L 113.476562 303.570312 C 92.316406 303.570312 75.203125 286.410156 75.203125 265.292969 L 75.203125 109.707031 C 75.203125 88.542969 92.363281 71.429688 113.476562 71.429688 L 261.523438 71.429688 C 282.683594 71.429688 299.796875 88.589844 299.796875 109.707031 Z M 299.796875 265.292969 " clip-rule="nonzero"/></clipPath><clipPath id="2cd8a4e34b"><path d="M 72.488281 68.714844 L 302.511719 68.714844 L 302.511719 306.5625 L 72.488281 306.5625 Z M 72.488281 68.714844 " clip-rule="nonzero"/></clipPath><clipPath id="69a0c80bf0"><path d="M 261.523438 306.285156 L 113.476562 306.285156 C 90.890625 306.285156 72.488281 287.882812 72.488281 265.292969 L 72.488281 109.707031 C 72.488281 87.117188 90.890625 68.714844 113.476562 68.714844 L 261.523438 68.714844 C 284.109375 68.714844 302.511719 87.117188 302.511719 109.707031 L 302.511719 265.25 C 302.511719 287.882812 284.109375 306.285156 261.523438 306.285156 Z M 113.476562 74.144531 C 93.878906 74.144531 77.914062 90.105469 77.914062 109.707031 L 77.914062 265.25 C 77.914062 284.847656 93.878906 300.808594 113.476562 300.808594 L 261.523438 300.808594 C 281.121094 300.808594 297.085938 284.847656 297.085938 265.25 L 297.085938 109.707031 C 297.085938 90.105469 281.121094 74.144531 261.523438 74.144531 Z M 113.476562 74.144531 " clip-rule="nonzero"/></clipPath><clipPath id="c6b8eebb74"><path d="M 87.277344 98 L 286 98 L 286 276 L 87.277344 276 Z M 87.277344 98 " clip-rule="nonzero"/></clipPath></defs><g clip-path="url(#b761d742e4)"><g clip-path="url(#8e5ba29c29)"><path fill="#000000" d="M 72.488281 68.714844 L 302.511719 68.714844 L 302.511719 306.101562 L 72.488281 306.101562 Z M 72.488281 68.714844 " fill-opacity="1" fill-rule="nonzero"/></g></g><g clip-path="url(#2cd8a4e34b)"><g clip-path="url(#69a0c80bf0)"><path fill="#000000" d="M 72.488281 68.714844 L 302.511719 68.714844 L 302.511719 306.101562 L 72.488281 306.101562 Z M 72.488281 68.714844 " fill-opacity="1" fill-rule="nonzero"/></g></g><g clip-path="url(#c6b8eebb74)"><path fill="#4caecf" d="M 250.609375 155.773438 C 248.554688 155.0625 246.421875 154.390625 244.21875 153.753906 C 244.585938 152.277344 244.917969 150.816406 245.210938 149.386719 C 250.042969 125.851562 246.886719 106.890625 236.085938 100.648438 C 225.726562 94.664062 208.789062 100.90625 191.683594 115.824219 C 190.039062 117.261719 188.386719 118.777344 186.746094 120.371094 C 185.644531 119.316406 184.550781 118.300781 183.457031 117.324219 C 165.527344 101.375 147.558594 94.652344 136.769531 100.910156 C 126.421875 106.914062 123.359375 124.734375 127.714844 147.039062 C 128.132812 149.195312 128.625 151.394531 129.179688 153.628906 C 126.636719 154.355469 124.183594 155.125 121.835938 155.945312 C 100.816406 163.289062 87.394531 174.800781 87.394531 186.738281 C 87.394531 199.066406 101.804688 211.4375 123.695312 218.9375 C 125.421875 219.527344 127.214844 220.085938 129.0625 220.617188 C 128.460938 223.03125 127.941406 225.402344 127.503906 227.71875 C 123.351562 249.636719 126.59375 267.035156 136.910156 272.996094 C 147.570312 279.160156 165.457031 272.824219 182.875 257.570312 C 184.253906 256.367188 185.636719 255.082031 187.015625 253.746094 C 188.816406 255.472656 190.605469 257.113281 192.382812 258.648438 C 209.253906 273.199219 225.917969 279.074219 236.226562 273.097656 C 246.871094 266.917969 250.339844 248.21875 245.839844 225.480469 C 245.5 223.738281 245.097656 221.96875 244.652344 220.164062 C 245.910156 219.792969 247.144531 219.402344 248.34375 219.007812 C 271.105469 211.445312 285.90625 199.234375 285.90625 186.738281 C 285.90625 174.753906 272.050781 163.167969 250.609375 155.773438 Z M 245.679688 210.941406 C 244.59375 211.296875 243.476562 211.648438 242.34375 211.980469 C 239.832031 204.015625 236.441406 195.535156 232.285156 186.777344 C 236.25 178.230469 239.503906 169.863281 241.949219 161.941406 C 243.980469 162.53125 245.949219 163.152344 247.847656 163.808594 C 266.21875 170.144531 277.425781 179.519531 277.425781 186.738281 C 277.425781 194.425781 265.328125 204.410156 245.679688 210.941406 Z M 237.519531 227.128906 C 239.511719 237.183594 239.792969 246.277344 238.472656 253.390625 C 237.296875 259.777344 234.914062 264.035156 231.976562 265.738281 C 225.71875 269.367188 212.339844 264.648438 197.917969 252.207031 C 196.257812 250.777344 194.589844 249.253906 192.925781 247.644531 C 198.515625 241.515625 204.105469 234.386719 209.566406 226.46875 C 219.15625 225.621094 228.222656 224.222656 236.449219 222.316406 C 236.851562 223.957031 237.210938 225.558594 237.519531 227.128906 Z M 155.074219 265.109375 C 148.964844 267.277344 144.09375 267.339844 141.152344 265.636719 C 134.890625 262.015625 132.289062 248.042969 135.835938 229.304688 C 136.246094 227.160156 136.730469 224.953125 137.289062 222.699219 C 145.417969 224.5 154.417969 225.800781 164.039062 226.578125 C 169.53125 234.324219 175.285156 241.445312 181.078125 247.675781 C 179.816406 248.90625 178.550781 250.070312 177.292969 251.167969 C 169.59375 257.917969 161.878906 262.707031 155.074219 265.109375 Z M 126.441406 210.894531 C 116.761719 207.574219 108.765625 203.269531 103.285156 198.558594 C 98.363281 194.339844 95.878906 190.144531 95.878906 186.738281 C 95.878906 179.496094 106.652344 170.253906 124.628906 163.972656 C 126.808594 163.210938 129.09375 162.492188 131.460938 161.816406 C 133.945312 169.914062 137.203125 178.382812 141.136719 186.941406 C 137.152344 195.628906 133.847656 204.234375 131.339844 212.433594 C 129.652344 211.941406 128.015625 211.429688 126.441406 210.894531 Z M 136.039062 145.40625 C 132.308594 126.296875 134.785156 111.882812 141.019531 108.265625 C 147.660156 104.414062 162.347656 109.90625 177.820312 123.679688 C 178.816406 124.5625 179.808594 125.484375 180.808594 126.4375 C 175.039062 132.644531 169.339844 139.710938 163.894531 147.410156 C 154.558594 148.277344 145.621094 149.671875 137.402344 151.535156 C 136.886719 149.453125 136.429688 147.40625 136.039062 145.40625 Z M 221.664062 166.597656 C 219.703125 163.199219 217.683594 159.878906 215.628906 156.648438 C 221.964844 157.453125 228.03125 158.515625 233.730469 159.820312 C 232.023438 165.316406 229.890625 171.0625 227.378906 176.953125 C 225.578125 173.523438 223.671875 170.070312 221.664062 166.597656 Z M 186.746094 132.511719 C 190.660156 136.757812 194.578125 141.5 198.429688 146.644531 C 194.546875 146.460938 190.613281 146.367188 186.652344 146.367188 C 182.726562 146.367188 178.828125 146.457031 174.964844 146.640625 C 178.820312 141.542969 182.773438 136.808594 186.746094 132.511719 Z M 151.601562 166.65625 C 149.640625 170.066406 147.773438 173.503906 146 176.945312 C 143.53125 171.074219 141.417969 165.304688 139.691406 159.730469 C 145.355469 158.460938 151.394531 157.421875 157.6875 156.632812 C 155.605469 159.894531 153.570312 163.238281 151.601562 166.65625 Z M 157.871094 217.445312 C 151.367188 216.722656 145.238281 215.734375 139.574219 214.5 C 141.328125 208.824219 143.488281 202.933594 146.007812 196.933594 C 147.785156 200.378906 149.664062 203.8125 151.636719 207.234375 C 153.648438 210.714844 155.730469 214.117188 157.871094 217.445312 Z M 186.976562 241.558594 C 182.960938 237.214844 178.953125 232.40625 175.035156 227.238281 C 178.835938 227.386719 182.710938 227.460938 186.652344 227.460938 C 190.699219 227.460938 194.699219 227.371094 198.632812 227.199219 C 194.769531 232.460938 190.863281 237.277344 186.976562 241.558594 Z M 227.457031 196.632812 C 230.109375 202.695312 232.347656 208.554688 234.125 214.132812 C 228.371094 215.449219 222.152344 216.503906 215.605469 217.296875 C 217.667969 214.023438 219.703125 210.644531 221.703125 207.171875 C 223.726562 203.65625 225.640625 200.136719 227.457031 196.632812 Z M 214.351562 202.925781 C 211.25 208.320312 208.0625 213.464844 204.828125 218.324219 C 198.941406 218.742188 192.855469 218.960938 186.652344 218.960938 C 180.472656 218.960938 174.460938 218.773438 168.675781 218.394531 C 165.3125 213.472656 162.058594 208.3125 158.976562 202.972656 C 155.902344 197.648438 153.070312 192.28125 150.507812 186.941406 C 153.070312 181.59375 155.894531 176.214844 158.949219 170.902344 C 162.015625 165.574219 165.242188 160.4375 168.578125 155.546875 C 174.476562 155.097656 180.535156 154.863281 186.652344 154.863281 C 192.800781 154.863281 198.855469 155.101562 204.757812 155.550781 C 208.046875 160.40625 211.25 165.527344 214.328125 170.855469 C 217.4375 176.246094 220.296875 181.585938 222.878906 186.824219 C 220.304688 192.148438 217.453125 197.542969 214.351562 202.925781 Z M 231.84375 108.011719 C 238.496094 111.855469 241.082031 127.347656 236.902344 147.667969 C 236.636719 148.964844 236.335938 150.285156 236.007812 151.621094 C 227.773438 149.71875 218.832031 148.300781 209.472656 147.421875 C 204.015625 139.636719 198.359375 132.558594 192.683594 126.429688 C 194.210938 124.960938 195.738281 123.558594 197.253906 122.234375 C 211.90625 109.453125 225.609375 104.40625 231.84375 108.011719 Z M 186.652344 168.96875 C 196.4375 168.96875 204.378906 176.921875 204.378906 186.738281 C 204.378906 196.542969 196.4375 204.503906 186.652344 204.503906 C 176.867188 204.503906 168.925781 196.542969 168.925781 186.738281 C 168.925781 176.921875 176.867188 168.96875 186.652344 168.96875 Z M 186.652344 168.96875 " fill-opacity="1" fill-rule="nonzero"/></g></svg>